<svg width="18" height="11" viewBox="0 0 18 11" fill="none" xmlns="http://www.w3.org/2000/svg">
<path fill-rule="evenodd" clip-rule="evenodd" d="M9.97245 10.2884C9.71892 10.5418 9.3751 10.6842 9.01661 10.6842C8.65812 10.6842 8.31431 10.5418 8.06078 10.2884L0.412738 2.64033C0.283612 2.51561 0.180616 2.36643 0.109761 2.20149C0.0389065 2.03654 0.00161096 1.85914 5.10451e-05 1.67963C-0.00150887 1.50011 0.0326984 1.32209 0.100676 1.15594C0.168654 0.989787 0.269041 0.838837 0.39598 0.711898C0.52292 0.584958 0.673868 0.484571 0.840019 0.416593C1.00617 0.348616 1.1842 0.314409 1.36371 0.315969C1.54322 0.317529 1.72062 0.354824 1.88557 0.425679C2.05051 0.496534 2.1997 0.599529 2.32441 0.728655L9.01661 7.42086L15.7088 0.728655C15.9638 0.482385 16.3053 0.346115 16.6598 0.349195C17.0143 0.352275 17.3534 0.494459 17.604 0.745124C17.8547 0.995788 17.9969 1.33488 17.9999 1.68936C18.003 2.04384 17.8668 2.38534 17.6205 2.64033L9.97245 10.2884Z" fill="#FCFCFC"/>
</svg>
