<svg width="14" height="24" viewBox="0 0 14 24" fill="none" xmlns="http://www.w3.org/2000/svg">
<path fill-rule="evenodd" clip-rule="evenodd" d="M13.4723 10.7034C13.8102 11.0414 14.0001 11.4999 14.0001 11.9778C14.0001 12.4558 13.8102 12.9143 13.4723 13.2523L3.27489 23.4497C3.10861 23.6218 2.9097 23.7592 2.68977 23.8537C2.46985 23.9481 2.23331 23.9979 1.99396 23.9999C1.75461 24.002 1.51724 23.9564 1.29571 23.8658C1.07417 23.7751 0.872907 23.6413 0.703654 23.472C0.534403 23.3028 0.400553 23.1015 0.309916 22.88C0.219278 22.6584 0.17367 22.4211 0.17575 22.1817C0.17783 21.9424 0.227557 21.7058 0.32203 21.4859C0.416504 21.266 0.55383 21.0671 0.725998 20.9008L9.64894 11.9778L0.726 3.05491C0.397639 2.71493 0.215946 2.25959 0.220053 1.78695C0.22416 1.31431 0.413739 0.862193 0.747958 0.527974C1.08218 0.193753 1.5343 0.0041741 2.00694 6.57087e-05C2.47958 -0.00404077 2.93492 0.177653 3.2749 0.506013L13.4723 10.7034Z" fill="#404040"/>
</svg>
