<svg width="18" height="11" viewBox="0 0 18 11" fill="none" xmlns="http://www.w3.org/2000/svg">
<path fill-rule="evenodd" clip-rule="evenodd" d="M8.02755 0.711635C8.28108 0.458181 8.6249 0.315799 8.98339 0.315799C9.34188 0.315799 9.68569 0.458181 9.93922 0.711634L17.5873 8.35967C17.7164 8.48439 17.8194 8.63357 17.8902 8.79851C17.9611 8.96346 17.9984 9.14086 17.9999 9.32037C18.0015 9.49989 17.9673 9.67791 17.8993 9.84406C17.8313 10.0102 17.731 10.1612 17.604 10.2881C17.4771 10.415 17.3261 10.5154 17.16 10.5834C16.9938 10.6514 16.8158 10.6856 16.6363 10.684C16.4568 10.6825 16.2794 10.6452 16.1144 10.5743C15.9495 10.5035 15.8003 10.4005 15.6756 10.2713L8.98339 3.57914L2.29118 10.2713C2.0362 10.5176 1.69469 10.6539 1.34021 10.6508C0.985733 10.6477 0.646645 10.5055 0.395981 10.2549C0.145317 10.0042 0.00313178 9.66512 5.13783e-05 9.31064C-0.00302902 8.95617 0.13324 8.61466 0.379511 8.35967L8.02755 0.711635Z" fill="#212121"/>
</svg>
