<svg width="22" height="24" viewBox="0 0 22 24" fill="none" xmlns="http://www.w3.org/2000/svg">
<path d="M1.2 3.6H4.8V2.4C4.8 1.76348 5.05286 1.15303 5.50294 0.702944C5.95303 0.252856 6.56348 0 7.2 0H14.4C15.0365 0 15.647 0.252856 16.0971 0.702944C16.5471 1.15303 16.8 1.76348 16.8 2.4V3.6H20.4C20.7183 3.6 21.0235 3.72643 21.2485 3.95147C21.4736 4.17652 21.6 4.48174 21.6 4.8C21.6 5.11826 21.4736 5.42348 21.2485 5.64853C21.0235 5.87357 20.7183 6 20.4 6H19.2V21.6C19.2 22.2365 18.9471 22.847 18.4971 23.2971C18.047 23.7471 17.4365 24 16.8 24H4.8C4.16348 24 3.55303 23.7471 3.10294 23.2971C2.65286 22.847 2.4 22.2365 2.4 21.6V6H1.2C0.88174 6 0.576515 5.87357 0.351472 5.64853C0.126428 5.42348 0 5.11826 0 4.8C0 4.48174 0.126428 4.17652 0.351472 3.95147C0.576515 3.72643 0.88174 3.6 1.2 3.6ZM4.8 6V21.6H16.8V6H4.8ZM7.2 3.6H14.4V2.4H7.2V3.6ZM7.2 8.4H9.6V19.2H7.2V8.4ZM12 8.4H14.4V19.2H12V8.4Z" fill="#F7F7F7"/>
</svg>
