<svg width="20" height="24" viewBox="0 0 20 24" fill="none" xmlns="http://www.w3.org/2000/svg">
<path d="M16.3624 8.47059H14.1176V1.41176C14.1176 0.635294 13.4824 0 12.7059 0H7.05882C6.28235 0 5.64706 0.635294 5.64706 1.41176V8.47059H3.40235C2.14588 8.47059 1.51059 9.99529 2.4 10.8847L8.88 17.3647C9.43059 17.9153 10.32 17.9153 10.8706 17.3647L17.3506 10.8847C18.24 9.99529 17.6188 8.47059 16.3624 8.47059ZM0 22.5882C0 23.3647 0.635294 24 1.41176 24H18.3529C19.1294 24 19.7647 23.3647 19.7647 22.5882C19.7647 21.8118 19.1294 21.1765 18.3529 21.1765H1.41176C0.635294 21.1765 0 21.8118 0 22.5882Z" fill="#616161"/>
</svg>
