<svg width="24" height="22" viewBox="0 0 24 22" fill="none" xmlns="http://www.w3.org/2000/svg">
<path d="M17.1724 0.654922C15.0941 0.654922 13.2497 1.47527 12 2.88527C10.7503 1.47527 8.90586 0.654922 6.82759 0.654922C5.01747 0.657113 3.28212 1.37715 2.00217 2.6571C0.722226 3.93704 0.0021901 5.67239 0 7.48251C0 14.966 10.9459 20.9453 11.4114 21.1966C11.5923 21.2941 11.7945 21.3451 12 21.3451C12.2055 21.3451 12.4077 21.2941 12.5886 21.1966C13.0541 20.9453 24 14.966 24 7.48251C23.9978 5.67239 23.2778 3.93704 21.9978 2.6571C20.7179 1.37715 18.9825 0.657113 17.1724 0.654922ZM16.6045 15.3818C15.1637 16.6044 13.6236 17.7048 12 18.6715C10.3764 17.7048 8.83627 16.6044 7.39552 15.3818C5.15379 13.4587 2.48276 10.526 2.48276 7.48251C2.48276 6.33019 2.94052 5.22506 3.75533 4.41025C4.57014 3.59544 5.67527 3.13768 6.82759 3.13768C8.66897 3.13768 10.2103 4.1101 10.8507 5.6763C10.9439 5.90462 11.103 6.10001 11.3077 6.23754C11.5124 6.37507 11.7534 6.44852 12 6.44852C12.2466 6.44852 12.4876 6.37507 12.6923 6.23754C12.897 6.10001 13.0561 5.90462 13.1493 5.6763C13.7897 4.1101 15.331 3.13768 17.1724 3.13768C18.3247 3.13768 19.4299 3.59544 20.2447 4.41025C21.0595 5.22506 21.5172 6.33019 21.5172 7.48251C21.5172 10.526 18.8462 13.4587 16.6045 15.3818Z" fill="#616161"/>
</svg>
