<svg width="24" height="22" viewBox="0 0 24 22" fill="none" xmlns="http://www.w3.org/2000/svg">
<path d="M17.1724 0.654785C15.0941 0.654785 13.2497 1.47513 12 2.88513C10.7503 1.47513 8.90586 0.654785 6.82759 0.654785C5.01747 0.656975 3.28212 1.37701 2.00217 2.65696C0.722226 3.9369 0.0021901 5.67226 0 7.48237C0 14.9658 10.9459 20.9451 11.4114 21.1965C11.5923 21.2939 11.7945 21.3449 12 21.3449C12.2055 21.3449 12.4077 21.2939 12.5886 21.1965C13.0541 20.9451 24 14.9658 24 7.48237C23.9978 5.67226 23.2778 3.9369 21.9978 2.65696C20.7179 1.37701 18.9825 0.656975 17.1724 0.654785ZM16.6045 15.3817C15.1637 16.6043 13.6236 17.7046 12 18.6713C10.3764 17.7046 8.83627 16.6043 7.39552 15.3817C5.15379 13.4586 2.48276 10.5258 2.48276 7.48237C2.48276 6.33005 2.94052 5.22493 3.75533 4.41011C4.57014 3.5953 5.67527 3.13754 6.82759 3.13754C8.66897 3.13754 10.2103 4.10996 10.8507 5.67616C10.9439 5.90448 11.103 6.09987 11.3077 6.2374C11.5124 6.37494 11.7534 6.44839 12 6.44839C12.2466 6.44839 12.4876 6.37494 12.6923 6.2374C12.897 6.09987 13.0561 5.90448 13.1493 5.67616C13.7897 4.10996 15.331 3.13754 17.1724 3.13754C18.3247 3.13754 19.4299 3.5953 20.2447 4.41011C21.0595 5.22493 21.5172 6.33005 21.5172 7.48237C21.5172 10.5258 18.8462 13.4586 16.6045 15.3817Z" fill="#F7F7F7"/>
</svg>
