<svg width="24" height="22" viewBox="0 0 24 22" fill="none" xmlns="http://www.w3.org/2000/svg">
<path d="M22.1538 0.846191H1.84615C1.35652 0.846191 0.886947 1.0407 0.540726 1.38692C0.194505 1.73314 0 2.20271 0 2.69235V19.3077C0 19.7974 0.194505 20.2669 0.540726 20.6132C0.886947 20.9594 1.35652 21.1539 1.84615 21.1539H22.1538C22.6435 21.1539 23.1131 20.9594 23.4593 20.6132C23.8055 20.2669 24 19.7974 24 19.3077V2.69235C24 2.20271 23.8055 1.73314 23.4593 1.38692C23.1131 1.0407 22.6435 0.846191 22.1538 0.846191ZM22.1538 2.69235V14.5481L19.1458 11.5412C18.9743 11.3697 18.7708 11.2337 18.5468 11.1409C18.3228 11.0481 18.0827 11.0003 17.8402 11.0003C17.5977 11.0003 17.3576 11.0481 17.1336 11.1409C16.9096 11.2337 16.7061 11.3697 16.5346 11.5412L14.2269 13.8489L9.15 8.77196C8.80381 8.426 8.33442 8.23166 7.845 8.23166C7.35558 8.23166 6.88619 8.426 6.54 8.77196L1.84615 13.4658V2.69235H22.1538ZM1.84615 16.077L7.84615 10.077L17.0769 19.3077H1.84615V16.077ZM22.1538 19.3077H19.6881L15.5342 15.1539L17.8419 12.8462L22.1538 17.1593V19.3077ZM13.8462 7.76927C13.8462 7.49542 13.9274 7.22772 14.0795 7.00002C14.2316 6.77232 14.4479 6.59485 14.7009 6.49005C14.9539 6.38525 15.2323 6.35783 15.5009 6.41126C15.7695 6.46468 16.0162 6.59656 16.2098 6.7902C16.4035 6.98384 16.5354 7.23055 16.5888 7.49914C16.6422 7.76773 16.6148 8.04613 16.51 8.29914C16.4052 8.55214 16.2277 8.76839 16 8.92054C15.7723 9.07268 15.5046 9.15388 15.2308 9.15388C14.8635 9.15388 14.5114 9.00801 14.2517 8.74834C13.992 8.48867 13.8462 8.13649 13.8462 7.76927Z" fill="#F7F7F7"/>
</svg>
