<svg width="24" height="22" viewBox="0 0 24 22" fill="none" xmlns="http://www.w3.org/2000/svg">
<path d="M22.1538 0.846153H1.84615C1.35652 0.846153 0.886947 1.04066 0.540726 1.38688C0.194505 1.7331 0 2.20268 0 2.69231V19.3077C0 19.7973 0.194505 20.2669 0.540726 20.6131C0.886947 20.9593 1.35652 21.1538 1.84615 21.1538H22.1538C22.6435 21.1538 23.1131 20.9593 23.4593 20.6131C23.8055 20.2669 24 19.7973 24 19.3077V2.69231C24 2.20268 23.8055 1.7331 23.4593 1.38688C23.1131 1.04066 22.6435 0.846153 22.1538 0.846153ZM22.1538 2.69231V14.5481L19.1458 11.5412C18.9743 11.3697 18.7708 11.2337 18.5468 11.1408C18.3228 11.048 18.0827 11.0003 17.8402 11.0003C17.5977 11.0003 17.3576 11.048 17.1336 11.1408C16.9096 11.2337 16.7061 11.3697 16.5346 11.5412L14.2269 13.8488L9.15 8.77192C8.80381 8.42596 8.33442 8.23162 7.845 8.23162C7.35558 8.23162 6.88619 8.42596 6.54 8.77192L1.84615 13.4658V2.69231H22.1538ZM1.84615 16.0769L7.84615 10.0769L17.0769 19.3077H1.84615V16.0769ZM22.1538 19.3077H19.6881L15.5342 15.1538L17.8419 12.8462L22.1538 17.1592V19.3077ZM13.8462 7.76923C13.8462 7.49538 13.9274 7.22768 14.0795 6.99998C14.2316 6.77228 14.4479 6.59481 14.7009 6.49001C14.9539 6.38521 15.2323 6.35779 15.5009 6.41122C15.7695 6.46465 16.0162 6.59652 16.2098 6.79016C16.4035 6.9838 16.5354 7.23052 16.5888 7.4991C16.6422 7.76769 16.6148 8.04609 16.51 8.2991C16.4052 8.55211 16.2277 8.76835 16 8.9205C15.7723 9.07264 15.5046 9.15385 15.2308 9.15385C14.8635 9.15385 14.5114 9.00797 14.2517 8.7483C13.992 8.48864 13.8462 8.13645 13.8462 7.76923Z" fill="#616161"/>
</svg>
