<svg width="22" height="24" viewBox="0 0 22 24" fill="none" xmlns="http://www.w3.org/2000/svg">
<path d="M8.04967 5.65732L9.59722 4.09777V18.0017C9.59722 18.3199 9.72361 18.625 9.94859 18.85C10.1736 19.075 10.4787 19.2014 10.7969 19.2014C11.115 19.2014 11.4202 19.075 11.6452 18.85C11.8701 18.625 11.9965 18.3199 11.9965 18.0017V4.09777L13.5441 5.65732C13.6556 5.76976 13.7883 5.85901 13.9345 5.91991C14.0807 5.98082 14.2375 6.01217 14.3958 6.01217C14.5542 6.01217 14.711 5.98082 14.8572 5.91991C15.0034 5.85901 15.1361 5.76976 15.2476 5.65732C15.36 5.54579 15.4493 5.41311 15.5102 5.26692C15.5711 5.12073 15.6024 4.96393 15.6024 4.80556C15.6024 4.6472 15.5711 4.4904 15.5102 4.34421C15.4493 4.19802 15.36 4.06533 15.2476 3.95381L11.6486 0.354855C11.5371 0.242414 11.4044 0.153166 11.2582 0.0922616C11.112 0.0313568 10.9552 0 10.7969 0C10.6385 0 10.4817 0.0313568 10.3355 0.0922616C10.1893 0.153166 10.0566 0.242414 9.94512 0.354855L6.34616 3.95381C6.12026 4.17971 5.99335 4.4861 5.99335 4.80556C5.99335 5.12503 6.12026 5.43142 6.34616 5.65732C6.57206 5.88322 6.87844 6.01013 7.19791 6.01013C7.51738 6.01013 7.82377 5.88322 8.04967 5.65732ZM17.9948 8.40452H15.5955C15.2773 8.40452 14.9722 8.53091 14.7472 8.75589C14.5222 8.98087 14.3958 9.28601 14.3958 9.60417C14.3958 9.92234 14.5222 10.2275 14.7472 10.4525C14.9722 10.6774 15.2773 10.8038 15.5955 10.8038H17.9948C18.313 10.8038 18.6181 10.9302 18.8431 11.1552C19.068 11.3802 19.1944 11.6853 19.1944 12.0035V20.401C19.1944 20.7192 19.068 21.0243 18.8431 21.2493C18.6181 21.4743 18.313 21.6007 17.9948 21.6007H3.59896C3.28079 21.6007 2.97565 21.4743 2.75067 21.2493C2.5257 21.0243 2.3993 20.7192 2.3993 20.401V12.0035C2.3993 11.6853 2.5257 11.3802 2.75067 11.1552C2.97565 10.9302 3.28079 10.8038 3.59896 10.8038H5.99826C6.31643 10.8038 6.62156 10.6774 6.84654 10.4525C7.07152 10.2275 7.19791 9.92234 7.19791 9.60417C7.19791 9.28601 7.07152 8.98087 6.84654 8.75589C6.62156 8.53091 6.31643 8.40452 5.99826 8.40452H3.59896C2.64445 8.40452 1.72905 8.7837 1.05411 9.45863C0.379175 10.1336 0 11.049 0 12.0035V20.401C0 21.3555 0.379175 22.271 1.05411 22.9459C1.72905 23.6208 2.64445 24 3.59896 24H17.9948C18.9493 24 19.8647 23.6208 20.5396 22.9459C21.2146 22.271 21.5937 21.3555 21.5937 20.401V12.0035C21.5937 11.049 21.2146 10.1336 20.5396 9.45863C19.8647 8.7837 18.9493 8.40452 17.9948 8.40452Z" fill="#F7F7F7"/>
</svg>
