<svg width="33" height="33" viewBox="0 0 33 33" fill="none" xmlns="http://www.w3.org/2000/svg">
<path d="M16.5 0.0588379C12.158 0.0588379 11.612 0.0788379 9.906 0.154838C8.2 0.234838 7.038 0.502838 6.02 0.898838C4.95169 1.29949 3.98428 1.92963 3.186 2.74484C2.3708 3.54312 1.74065 4.51053 1.34 5.57884C0.944 6.59484 0.674 7.75884 0.596 9.45884C0.52 11.1688 0.5 11.7128 0.5 16.0608C0.5 20.4048 0.52 20.9488 0.596 22.6548C0.676 24.3588 0.944 25.5208 1.34 26.5388C1.75 27.5908 2.296 28.4828 3.186 29.3728C4.074 30.2628 4.966 30.8108 6.018 31.2188C7.038 31.6148 8.198 31.8848 9.902 31.9628C11.61 32.0388 12.154 32.0588 16.5 32.0588C20.846 32.0588 21.388 32.0388 23.096 31.9628C24.798 31.8828 25.964 31.6148 26.982 31.2188C28.0496 30.8179 29.0163 30.1878 29.814 29.3728C30.704 28.4828 31.25 27.5908 31.66 26.5388C32.054 25.5208 32.324 24.3588 32.404 22.6548C32.48 20.9488 32.5 20.4048 32.5 16.0588C32.5 11.7128 32.48 11.1688 32.404 9.46084C32.324 7.75884 32.054 6.59484 31.66 5.57884C31.2593 4.51053 30.6292 3.54312 29.814 2.74484C29.0157 1.92963 28.0483 1.29949 26.98 0.898838C25.96 0.502838 24.796 0.232838 23.094 0.154838C21.386 0.0788379 20.844 0.0588379 16.496 0.0588379H16.5ZM15.066 2.94284H16.502C20.774 2.94284 21.28 2.95684 22.966 3.03484C24.526 3.10484 25.374 3.36684 25.938 3.58484C26.684 3.87484 27.218 4.22284 27.778 4.78284C28.338 5.34284 28.684 5.87484 28.974 6.62284C29.194 7.18484 29.454 8.03284 29.524 9.59284C29.602 11.2788 29.618 11.7848 29.618 16.0548C29.618 20.3248 29.602 20.8328 29.524 22.5188C29.454 24.0788 29.192 24.9248 28.974 25.4888C28.7157 26.1826 28.3065 26.8104 27.776 27.3268C27.216 27.8868 26.684 28.2328 25.936 28.5228C25.376 28.7428 24.528 29.0028 22.966 29.0748C21.28 29.1508 20.774 29.1688 16.502 29.1688C12.23 29.1688 11.722 29.1508 10.036 29.0748C8.476 29.0028 7.63 28.7428 7.066 28.5228C6.37167 28.2654 5.7432 27.8568 5.226 27.3268C4.69455 26.81 4.28466 26.1815 4.026 25.4868C3.808 24.9248 3.546 24.0768 3.476 22.5168C3.4 20.8308 3.384 20.3248 3.384 16.0508C3.384 11.7768 3.4 11.2748 3.476 9.58884C3.548 8.02884 3.808 7.18084 4.028 6.61684C4.318 5.87084 4.666 5.33684 5.226 4.77684C5.786 4.21684 6.318 3.87084 7.066 3.58084C7.63 3.36084 8.476 3.10084 10.036 3.02884C11.512 2.96084 12.084 2.94084 15.066 2.93884V2.94284ZM25.042 5.59884C24.7899 5.59884 24.5402 5.6485 24.3072 5.74499C24.0743 5.84148 23.8626 5.9829 23.6844 6.16119C23.5061 6.33948 23.3646 6.55114 23.2682 6.78409C23.1717 7.01703 23.122 7.2667 23.122 7.51884C23.122 7.77098 23.1717 8.02064 23.2682 8.25359C23.3646 8.48654 23.5061 8.69819 23.6844 8.87648C23.8626 9.05477 24.0743 9.1962 24.3072 9.29269C24.5402 9.38918 24.7899 9.43884 25.042 9.43884C25.5512 9.43884 26.0396 9.23655 26.3996 8.87648C26.7597 8.51641 26.962 8.02805 26.962 7.51884C26.962 7.00962 26.7597 6.52126 26.3996 6.16119C26.0396 5.80112 25.5512 5.59884 25.042 5.59884ZM16.502 7.84284C15.4121 7.82583 14.3298 8.02581 13.318 8.43112C12.3061 8.83643 11.385 9.43898 10.6083 10.2037C9.83157 10.9684 9.21473 11.88 8.79368 12.8854C8.37264 13.8907 8.1558 14.9698 8.1558 16.0598C8.1558 17.1498 8.37264 18.2289 8.79368 19.2343C9.21473 20.2397 9.83157 21.1513 10.6083 21.916C11.385 22.6807 12.3061 23.2832 13.318 23.6886C14.3298 24.0939 15.4121 24.2938 16.502 24.2768C18.6591 24.2432 20.7164 23.3627 22.23 21.8253C23.7435 20.288 24.5918 18.2172 24.5918 16.0598C24.5918 13.9025 23.7435 11.8317 22.23 10.2943C20.7164 8.75701 18.6591 7.87649 16.502 7.84284ZM16.502 10.7248C17.2025 10.7248 17.8961 10.8628 18.5432 11.1309C19.1904 11.3989 19.7784 11.7918 20.2737 12.2871C20.769 12.7824 21.1619 13.3705 21.43 14.0176C21.698 14.6648 21.836 15.3584 21.836 16.0588C21.836 16.7593 21.698 17.4529 21.43 18.1001C21.1619 18.7472 20.769 19.3352 20.2737 19.8305C19.7784 20.3259 19.1904 20.7188 18.5432 20.9868C17.8961 21.2549 17.2025 21.3928 16.502 21.3928C15.0873 21.3928 13.7306 20.8309 12.7303 19.8305C11.73 18.8302 11.168 17.4735 11.168 16.0588C11.168 14.6442 11.73 13.2874 12.7303 12.2871C13.7306 11.2868 15.0873 10.7248 16.502 10.7248Z" fill="#FCFCFC"/>
</svg>
