<svg width="19" height="24" viewBox="0 0 19 24" fill="none" xmlns="http://www.w3.org/2000/svg">
<path d="M9.42858 13.7143C8.58095 13.7143 7.75235 13.4629 7.04757 12.992C6.34278 12.5211 5.79347 11.8518 5.4691 11.0686C5.14472 10.2855 5.05985 9.42382 5.22522 8.59247C5.39058 7.76112 5.79876 6.99748 6.39812 6.39811C6.99749 5.79875 7.76113 5.39057 8.59248 5.22521C9.42383 5.05984 10.2855 5.14471 11.0687 5.46909C11.8518 5.79346 12.5211 6.34277 12.992 7.04756C13.4629 7.75234 13.7143 8.58094 13.7143 9.42857C13.7129 10.5648 13.261 11.6541 12.4575 12.4575C11.6541 13.261 10.5648 13.7129 9.42858 13.7143ZM9.42858 6.85714C8.92 6.85714 8.42284 7.00795 7.99997 7.29051C7.5771 7.57306 7.24752 7.97466 7.05289 8.44453C6.85827 8.9144 6.80734 9.43142 6.90656 9.93023C7.00578 10.429 7.25069 10.8872 7.61031 11.2468C7.96993 11.6065 8.42811 11.8514 8.92692 11.9506C9.42573 12.0498 9.94276 11.9989 10.4126 11.8043C10.8825 11.6096 11.2841 11.28 11.5666 10.8572C11.8492 10.4343 12 9.93715 12 9.42857C11.9993 8.74679 11.7282 8.09314 11.2461 7.61105C10.764 7.12896 10.1104 6.85782 9.42858 6.85714Z" fill="#404040"/>
<path d="M9.42858 24L2.19772 15.4723C2.09725 15.3442 1.99782 15.2154 1.89944 15.0857C0.664279 13.4587 -0.00298388 11.4713 1.0031e-05 9.42857C1.0031e-05 6.92796 0.993375 4.52976 2.76157 2.76156C4.52977 0.993365 6.92797 0 9.42858 0C11.9292 0 14.3274 0.993365 16.0956 2.76156C17.8638 4.52976 18.8572 6.92796 18.8572 9.42857C18.8601 11.4704 18.1932 13.4568 16.9586 15.0831L16.9577 15.0857C16.9577 15.0857 16.7006 15.4234 16.662 15.4689L9.42858 24ZM3.2683 14.0529C3.2683 14.0529 3.46801 14.3169 3.51344 14.3734L9.42858 21.3497L15.3514 14.364C15.3892 14.3169 15.5897 14.0511 15.5906 14.0503C16.5996 12.721 17.1448 11.0975 17.1429 9.42857C17.1429 7.38262 16.3301 5.42046 14.8834 3.97375C13.4367 2.52704 11.4745 1.71429 9.42858 1.71429C7.38263 1.71429 5.42047 2.52704 3.97376 3.97375C2.52705 5.42046 1.7143 7.38262 1.7143 9.42857C1.7125 11.0985 2.25839 12.7229 3.2683 14.0529Z" fill="#404040"/>
</svg>
