<svg width="32" height="29" viewBox="0 0 32 29" fill="none" xmlns="http://www.w3.org/2000/svg">
<path d="M22.8966 0.654938C20.1255 0.654938 17.6662 1.74873 16 3.62873C14.3338 1.74873 11.8745 0.654938 9.10345 0.654938C6.68996 0.657858 4.37616 1.61791 2.66956 3.3245C0.962968 5.0311 0.00292013 7.3449 0 9.75839C0 19.7363 14.5945 27.7087 15.2152 28.0439C15.4564 28.1738 15.726 28.2418 16 28.2418C16.274 28.2418 16.5436 28.1738 16.7848 28.0439C17.4055 27.7087 32 19.7363 32 9.75839C31.9971 7.3449 31.037 5.0311 29.3304 3.3245C27.6238 1.61791 25.31 0.657858 22.8966 0.654938ZM22.1393 20.2908C20.2183 21.9209 18.1648 23.3881 16 24.677C13.8352 23.3881 11.7817 21.9209 9.86069 20.2908C6.87172 17.7267 3.31034 13.8163 3.31034 9.75839C3.31034 8.22196 3.92069 6.74846 5.00711 5.66204C6.09352 4.57563 7.56702 3.96528 9.10345 3.96528C11.5586 3.96528 13.6138 5.26183 14.4676 7.35011C14.5919 7.65453 14.804 7.91505 15.0769 8.09843C15.3498 8.28181 15.6712 8.37974 16 8.37974C16.3288 8.37974 16.6502 8.28181 16.9231 8.09843C17.196 7.91505 17.4081 7.65453 17.5324 7.35011C18.3862 5.26183 20.4414 3.96528 22.8966 3.96528C24.433 3.96528 25.9065 4.57563 26.9929 5.66204C28.0793 6.74846 28.6897 8.22196 28.6897 9.75839C28.6897 13.8163 25.1283 17.7267 22.1393 20.2908Z" fill="#FCFCFC"/>
</svg>
