<svg width="30" height="24" viewBox="0 0 30 24" fill="none" xmlns="http://www.w3.org/2000/svg">
<path d="M4.875 1.04628e-08H25.125C26.3702 -8.15201e-05 27.5682 0.476331 28.4733 1.33151C29.3785 2.18668 29.922 3.35579 29.9925 4.599L30 4.875V19.125C30.0001 20.3702 29.5237 21.5682 28.6685 22.4733C27.8133 23.3785 26.6442 23.922 25.401 23.9925L25.125 24H4.875C3.62979 24.0001 2.43176 23.5237 1.52665 22.6685C0.62155 21.8133 0.077998 20.6442 0.00750018 19.401L1.04628e-08 19.125V4.875C-8.15201e-05 3.62979 0.476331 2.43176 1.33151 1.52665C2.18668 0.621551 3.35579 0.077998 4.599 0.00750018L4.875 1.04628e-08ZM27.75 8.0595L15.525 14.4945C15.387 14.5674 15.2353 14.6108 15.0795 14.6219C14.9238 14.633 14.7675 14.6116 14.6205 14.559L14.4765 14.496L2.25 8.061V19.125C2.25002 19.7838 2.49776 20.4185 2.94402 20.9031C3.39028 21.3877 4.00245 21.6868 4.659 21.741L4.875 21.75H25.125C25.784 21.7499 26.4189 21.502 26.9036 21.0554C27.3882 20.6089 27.6871 19.9963 27.741 19.3395L27.75 19.125V8.0595ZM25.125 2.25H4.875C4.21622 2.25002 3.58152 2.49776 3.09691 2.94402C2.6123 3.39028 2.31321 4.00245 2.259 4.659L2.25 4.875V5.5185L15 12.2295L27.75 5.517V4.875C27.7499 4.21598 27.502 3.58108 27.0554 3.09644C26.6089 2.61179 25.9963 2.31285 25.3395 2.259L25.125 2.25Z" fill="#616161"/>
</svg>
