<svg width="21" height="20" viewBox="0 0 21 20" fill="none" xmlns="http://www.w3.org/2000/svg">
<path d="M7.54 19.54C8.5 19.83 9.47 20 10.5 20C13.1522 20 15.6957 18.9464 17.5711 17.0711C19.4464 15.1957 20.5 12.6522 20.5 10C20.5 8.68678 20.2413 7.38642 19.7388 6.17317C19.2362 4.95991 18.4997 3.85752 17.5711 2.92893C16.6425 2.00035 15.5401 1.26375 14.3268 0.761205C13.1136 0.258658 11.8132 0 10.5 0C9.18678 0 7.88642 0.258658 6.67317 0.761205C5.45991 1.26375 4.35752 2.00035 3.42893 2.92893C1.55357 4.8043 0.5 7.34784 0.5 10C0.5 14.25 3.17 17.9 6.94 19.34C6.85 18.56 6.76 17.27 6.94 16.38L8.09 11.44C8.09 11.44 7.8 10.86 7.8 9.94C7.8 8.56 8.66 7.53 9.64 7.53C10.5 7.53 10.9 8.16 10.9 8.97C10.9 9.83 10.33 11.06 10.04 12.24C9.87 13.22 10.56 14.08 11.56 14.08C13.34 14.08 14.72 12.18 14.72 9.5C14.72 7.1 13 5.46 10.53 5.46C7.71 5.46 6.05 7.56 6.05 9.77C6.05 10.63 6.33 11.5 6.79 12.07C6.88 12.13 6.88 12.21 6.85 12.36L6.56 13.45C6.56 13.62 6.45 13.68 6.28 13.56C5 13 4.26 11.18 4.26 9.71C4.26 6.55 6.5 3.68 10.82 3.68C14.26 3.68 16.94 6.15 16.94 9.43C16.94 12.87 14.81 15.63 11.76 15.63C10.79 15.63 9.84 15.11 9.5 14.5L8.83 16.87C8.6 17.73 7.97 18.88 7.54 19.57V19.54Z" fill="#616161"/>
</svg>
