<svg width="33" height="33" viewBox="0 0 33 33" fill="none" xmlns="http://www.w3.org/2000/svg">
<path d="M16.5109 0.0588411C12.7801 0.0564751 9.16581 1.35785 6.29287 3.73796C3.41992 6.11807 1.46898 9.42727 0.777368 13.0934C0.0857595 16.7595 0.696966 20.5521 2.50531 23.8153C4.31364 27.0785 7.20543 29.6073 10.6807 30.9643C10.5406 29.6982 10.4126 27.7521 10.7347 26.3701C11.0267 25.12 12.6107 18.4157 12.6107 18.4157C12.6107 18.4157 12.1327 17.4577 12.1327 16.0416C12.1327 13.8155 13.4228 12.1554 15.0289 12.1554C16.3929 12.1554 17.053 13.1795 17.053 14.4095C17.053 15.7816 16.1789 17.8337 15.7269 19.7358C15.3509 21.3278 16.5269 22.6279 18.097 22.6279C20.9411 22.6279 23.1272 19.6278 23.1272 15.2996C23.1272 11.4694 20.3731 8.79125 16.4429 8.79125C11.8907 8.79125 9.21859 12.2054 9.21859 15.7336C9.21859 17.1096 9.74861 18.5837 10.4086 19.3858C10.4655 19.4462 10.5057 19.5204 10.5253 19.601C10.5449 19.6816 10.5433 19.766 10.5206 19.8458C10.3986 20.3498 10.1286 21.4378 10.0766 21.6599C10.0066 21.9519 9.84461 22.0139 9.5406 21.8739C7.54051 20.9438 6.29245 18.0217 6.29245 15.6736C6.29245 10.6273 9.96062 5.99312 16.8649 5.99312C22.4152 5.99312 26.7294 9.94731 26.7294 15.2336C26.7294 20.7478 23.2512 25.186 18.427 25.186C16.8049 25.186 15.2809 24.344 14.7588 23.3479L13.7628 27.1521C13.4008 28.5422 12.4247 30.2843 11.7727 31.3463C13.9728 32.0266 16.2937 32.2239 18.577 31.9249C20.8603 31.6258 23.0522 30.8375 25.0029 29.6136C26.9536 28.3898 28.6171 26.7593 29.8799 24.8336C31.1426 22.9079 31.9748 20.7323 32.3196 18.4555C32.6644 16.1786 32.5137 13.8542 31.8778 11.6409C31.2418 9.42763 30.1357 7.37771 28.6348 5.63117C27.134 3.88464 25.2738 2.48263 23.1814 1.52094C21.0891 0.559245 18.8137 0.0605226 16.5109 0.0588411Z" fill="#FCFCFC"/>
</svg>
