<svg width="24" height="24" viewBox="0 0 24 24" fill="none" xmlns="http://www.w3.org/2000/svg">
<path d="M12 0C9.62663 0 7.30655 0.703787 5.33316 2.02236C3.35977 3.34094 1.8217 5.21508 0.913451 7.4078C0.00519921 9.60051 -0.232441 12.0133 0.230582 14.3411C0.693605 16.6689 1.83649 18.807 3.51472 20.4853C5.19295 22.1635 7.33115 23.3064 9.65892 23.7694C11.9867 24.2324 14.3995 23.9948 16.5922 23.0865C18.7849 22.1783 20.6591 20.6402 21.9776 18.6668C23.2962 16.6934 24 14.3734 24 12C23.9963 8.81855 22.7308 5.76847 20.4812 3.51884C18.2315 1.26922 15.1815 0.00373629 12 0ZM21.5965 7.52941H16.8694C16.355 5.39575 15.4168 3.38731 14.1106 1.62353C15.7322 1.95677 17.2535 2.66428 18.5532 3.68966C19.8529 4.71503 20.895 6.0299 21.5965 7.52941ZM22.5882 12C22.589 13.0362 22.4372 14.0669 22.1376 15.0588H17.16C17.4957 13.0334 17.4957 10.9666 17.16 8.94117H22.1376C22.4372 9.93313 22.589 10.9638 22.5882 12ZM12 22.5882C11.9707 22.5884 11.9416 22.5823 11.9149 22.5703C11.8881 22.5583 11.8642 22.5408 11.8447 22.5188C10.3294 20.8871 9.21647 18.7918 8.58824 16.4706H15.4118C14.7835 18.7918 13.6706 20.8871 12.1553 22.5188C12.1359 22.5408 12.1119 22.5583 12.0852 22.5703C12.0584 22.5823 12.0293 22.5884 12 22.5882ZM8.27177 15.0588C7.90943 13.0357 7.90943 10.9643 8.27177 8.94117H15.7282C16.0906 10.9643 16.0906 13.0357 15.7282 15.0588H8.27177ZM1.41177 12C1.41098 10.9638 1.5628 9.93313 1.86236 8.94117H6.84C6.50429 10.9666 6.50429 13.0334 6.84 15.0588H1.86236C1.5628 14.0669 1.41098 13.0362 1.41177 12ZM12 1.41176C12.0293 1.4116 12.0584 1.41771 12.0852 1.42968C12.1119 1.44165 12.1359 1.45921 12.1553 1.48118C13.6706 3.11294 14.7835 5.20823 15.4118 7.52941H8.58824C9.21647 5.20823 10.3294 3.11294 11.8447 1.48118C11.8642 1.45921 11.8881 1.44165 11.9149 1.42968C11.9416 1.41771 11.9707 1.4116 12 1.41176ZM9.88941 1.62353C8.58321 3.38731 7.645 5.39575 7.13059 7.52941H2.40353C3.10501 6.0299 4.14714 4.71503 5.44684 3.68966C6.74653 2.66428 8.26783 1.95677 9.88941 1.62353ZM2.40353 16.4706H7.13059C7.645 18.6042 8.58321 20.6127 9.88941 22.3765C8.26783 22.0432 6.74653 21.3357 5.44684 20.3103C4.14714 19.285 3.10501 17.9701 2.40353 16.4706ZM14.1106 22.3765C15.4168 20.6127 16.355 18.6042 16.8694 16.4706H21.5965C20.895 17.9701 19.8529 19.285 18.5532 20.3103C17.2535 21.3357 15.7322 22.0432 14.1106 22.3765Z" fill="#616161"/>
</svg>
