<svg width="40" height="40" viewBox="0 0 40 40" fill="none" xmlns="http://www.w3.org/2000/svg">
<path fill-rule="evenodd" clip-rule="evenodd" d="M20 0C31.046 0 40 8.95399 40 20C40.007 24.6158 38.4108 29.0907 35.484 32.66L35.524 32.704L35.26 32.928C33.3844 35.1464 31.0472 36.9286 28.4114 38.1501C25.7757 39.3716 22.905 40.0029 20 40C14.1 40 8.80001 37.446 5.14002 33.386L4.74002 32.926L4.47602 32.706L4.51602 32.658C1.58954 29.0893 -0.00673484 24.6151 2.13588e-05 20C2.13588e-05 8.95399 8.95401 0 20 0ZM20 30C16.28 30 12.918 31.184 10.414 32.812C13.1788 34.8865 16.5434 36.0055 20 36C23.4566 36.0055 26.8212 34.8865 29.586 32.812C26.7247 30.9785 23.3983 30.0027 20 30ZM20 4C16.989 3.99991 14.0392 4.84942 11.4895 6.45089C8.93972 8.05236 6.89362 10.3408 5.58634 13.0531C4.27905 15.7655 3.76363 18.7916 4.09932 21.7838C4.43501 24.776 5.60819 27.6127 7.48401 29.968C10.726 27.642 15.15 26 20 26C24.85 26 29.274 27.642 32.516 29.968C34.3918 27.6127 35.565 24.776 35.9007 21.7838C36.2364 18.7916 35.721 15.7655 34.4137 13.0531C33.1064 10.3408 31.0603 8.05236 28.5105 6.45089C25.9608 4.84942 23.0109 3.99991 20 4ZM20 7.99999C22.1217 7.99999 24.1566 8.84284 25.6568 10.3431C27.1571 11.8434 28 13.8783 28 16C28 18.1217 27.1571 20.1565 25.6568 21.6568C24.1566 23.1571 22.1217 24 20 24C17.8783 24 15.8434 23.1571 14.3432 21.6568C12.8429 20.1565 12 18.1217 12 16C12 13.8783 12.8429 11.8434 14.3432 10.3431C15.8434 8.84284 17.8783 7.99999 20 7.99999ZM20 12C18.9391 12 17.9217 12.4214 17.1716 13.1716C16.4214 13.9217 16 14.9391 16 16C16 17.0608 16.4214 18.0783 17.1716 18.8284C17.9217 19.5786 18.9391 20 20 20C21.0609 20 22.0783 19.5786 22.8284 18.8284C23.5786 18.0783 24 17.0608 24 16C24 14.9391 23.5786 13.9217 22.8284 13.1716C22.0783 12.4214 21.0609 12 20 12Z" fill="#FCFCFC"/>
</svg>
