<svg width="247" height="26" viewBox="0 0 247 26" fill="none" xmlns="http://www.w3.org/2000/svg">
<path d="M0.64 25.0294V24.0694H3.68V1.86142H0.64V0.901419H11.872V1.86142H8.736V24.0694H11.872V25.0294H0.64ZM14.08 25.0294V24.0374H26.432V25.0294H14.08ZM17.888 24.5494L9.536 12.7094L13.536 9.02942L24.224 24.5494H17.888ZM7.968 14.9814V13.3814L19.616 1.47742H21.088L7.968 14.9814ZM15.424 1.86142V0.901419H24.48V1.86142H15.424ZM36.0175 24.5494V0.901419H41.0735V24.5494H36.0175ZM32.9775 25.0294V24.0694H44.2095V25.0294H32.9775ZM32.9775 1.86142V0.901419H44.2095V1.86142H32.9775ZM71.3053 25.4454L56.7772 4.51742H56.6492V24.0694H60.1692V25.0294H51.7212V24.0694H55.2412V1.86142H51.7212V0.901419H61.0652L71.1772 15.1414H71.3053V1.86142H68.1052V0.901419H75.9132V1.86142H72.7133V25.4454H71.3053ZM94.7477 25.4454C93.1904 25.4454 91.7397 25.1361 90.3957 24.5174C89.0517 23.8988 87.8677 23.0348 86.8437 21.9254C85.8411 20.7948 85.0517 19.4934 84.4757 18.0214C83.9211 16.5494 83.6437 14.9708 83.6437 13.2854C83.6437 11.5148 83.9531 9.86142 84.5717 8.32542C85.1904 6.78942 86.0437 5.44542 87.1317 4.29342C88.2197 3.14142 89.4997 2.24542 90.9717 1.60542C92.4437 0.944085 94.0224 0.613419 95.7077 0.613419C96.7531 0.613419 97.6704 0.762752 98.4597 1.06142C99.2491 1.33875 100.102 1.81875 101.02 2.50142L102.268 0.901419H103.228V8.45342H102.268C102.097 7.34408 101.756 6.27742 101.244 5.25342C100.732 4.22942 100.006 3.38675 99.0677 2.72542C98.1504 2.06408 96.9557 1.73342 95.4837 1.73342C94.6517 1.73342 93.8837 1.88275 93.1797 2.18142C92.4971 2.48008 91.8891 3.04542 91.3557 3.87742C90.8437 4.70942 90.4384 5.90408 90.1397 7.46142C89.8624 9.01875 89.7237 11.0561 89.7237 13.5734C89.7237 15.7068 89.8304 17.4668 90.0437 18.8534C90.2784 20.2401 90.5984 21.3281 91.0037 22.1174C91.4304 22.9068 91.9531 23.4614 92.5717 23.7814C93.1904 24.1014 93.8944 24.2614 94.6837 24.2614C96.0064 24.2614 96.9984 23.9201 97.6597 23.2374C98.3211 22.5548 98.6517 21.6054 98.6517 20.3894V16.0054H104.476V19.5894C104.134 20.6774 103.462 21.6694 102.46 22.5654C101.478 23.4401 100.305 24.1441 98.9397 24.6774C97.5957 25.1894 96.1984 25.4454 94.7477 25.4454ZM95.5797 16.3894V15.4294H106.94V16.3894H95.5797ZM122.269 14.0854V13.1254H124.925C126.098 13.1254 127.048 12.9761 127.773 12.6774C128.498 12.3574 129.032 11.7814 129.373 10.9494C129.714 10.0961 129.885 8.86942 129.885 7.26942C129.885 5.75475 129.746 4.61342 129.469 3.84542C129.192 3.07742 128.776 2.55475 128.221 2.27742C127.688 2.00008 127.016 1.86142 126.205 1.86142H114.365V0.901419H127.805C129.341 0.901419 130.717 1.17875 131.933 1.73342C133.17 2.28808 134.152 3.05608 134.877 4.03742C135.602 4.99742 135.965 6.10675 135.965 7.36542C135.965 8.68808 135.517 9.86142 134.621 10.8854C133.746 11.8881 132.488 12.6774 130.845 13.2534C129.202 13.8081 127.229 14.0854 124.925 14.0854H122.269ZM114.365 25.0294V24.0694H126.237V25.0294H114.365ZM117.405 24.5494V0.901419H122.461V24.5494H117.405ZM146.211 24.5494V0.901419H151.267V24.5494H146.211ZM143.171 25.0294V24.0694H154.403V25.0294H143.171ZM143.171 1.86142V0.901419H154.403V1.86142H143.171ZM173.979 25.4454C172.422 25.4454 170.971 25.1361 169.627 24.5174C168.283 23.8988 167.099 23.0348 166.075 21.9254C165.072 20.7948 164.283 19.4934 163.707 18.0214C163.152 16.5494 162.875 14.9708 162.875 13.2854C162.875 11.5148 163.184 9.86142 163.803 8.32542C164.422 6.78942 165.275 5.44542 166.363 4.29342C167.451 3.14142 168.731 2.24542 170.203 1.60542C171.675 0.944085 173.254 0.613419 174.939 0.613419C175.984 0.613419 176.902 0.762752 177.691 1.06142C178.48 1.33875 179.334 1.81875 180.251 2.50142L181.499 0.901419H182.459V8.45342H181.499C181.328 7.34408 180.987 6.27742 180.475 5.25342C179.963 4.22942 179.238 3.38675 178.299 2.72542C177.382 2.06408 176.187 1.73342 174.715 1.73342C173.883 1.73342 173.115 1.88275 172.411 2.18142C171.728 2.48008 171.12 3.04542 170.587 3.87742C170.075 4.70942 169.67 5.90408 169.371 7.46142C169.094 9.01875 168.955 11.0561 168.955 13.5734C168.955 15.7068 169.062 17.4668 169.275 18.8534C169.51 20.2401 169.83 21.3281 170.235 22.1174C170.662 22.9068 171.184 23.4614 171.803 23.7814C172.422 24.1014 173.126 24.2614 173.915 24.2614C175.238 24.2614 176.23 23.9201 176.891 23.2374C177.552 22.5548 177.883 21.6054 177.883 20.3894V16.0054H183.707V19.5894C183.366 20.6774 182.694 21.6694 181.691 22.5654C180.71 23.4401 179.536 24.1441 178.171 24.6774C176.827 25.1894 175.43 25.4454 173.979 25.4454ZM174.811 16.3894V15.4294H186.171V16.3894H174.811ZM205.66 25.4454C204.103 25.4454 202.652 25.1361 201.308 24.5174C199.964 23.8988 198.78 23.0348 197.756 21.9254C196.754 20.7948 195.964 19.4934 195.388 18.0214C194.834 16.5494 194.556 14.9708 194.556 13.2854C194.556 11.5148 194.866 9.86142 195.484 8.32542C196.103 6.78942 196.956 5.44542 198.044 4.29342C199.132 3.14142 200.412 2.24542 201.884 1.60542C203.356 0.944085 204.935 0.613419 206.62 0.613419C207.666 0.613419 208.583 0.762752 209.372 1.06142C210.162 1.33875 211.015 1.81875 211.932 2.50142L213.18 0.901419H214.14V8.45342H213.18C213.01 7.34408 212.668 6.27742 212.156 5.25342C211.644 4.22942 210.919 3.38675 209.98 2.72542C209.063 2.06408 207.868 1.73342 206.396 1.73342C205.564 1.73342 204.796 1.88275 204.092 2.18142C203.41 2.48008 202.802 3.04542 202.268 3.87742C201.756 4.70942 201.351 5.90408 201.052 7.46142C200.775 9.01875 200.636 11.0561 200.636 13.5734C200.636 15.7068 200.743 17.4668 200.956 18.8534C201.191 20.2401 201.511 21.3281 201.916 22.1174C202.343 22.9068 202.866 23.4614 203.484 23.7814C204.103 24.1014 204.807 24.2614 205.596 24.2614C206.919 24.2614 207.911 23.9201 208.572 23.2374C209.234 22.5548 209.564 21.6054 209.564 20.3894V16.0054H215.388V19.5894C215.047 20.6774 214.375 21.6694 213.372 22.5654C212.391 23.4401 211.218 24.1441 209.852 24.6774C208.508 25.1894 207.111 25.4454 205.66 25.4454ZM206.492 16.3894V15.4294H217.852V16.3894H206.492ZM228.914 25.0294V24.0694H232.594V14.5014L224.946 1.86142H222.77V0.901419H234.034V1.86142H231.282L237.298 12.1334H237.426L242.578 1.86142H239.122V0.901419H246.642V1.86142H243.794L237.65 14.0854V24.0694H241.426V25.0294H228.914Z" fill="#FCFCFC"/>
</svg>
