<svg width="197" height="48" viewBox="0 0 197 48" fill="none" xmlns="http://www.w3.org/2000/svg">
<g clip-path="url(#clip0_138_3)">
<path d="M10.3678 35.0617C11.5124 34.6862 12.7548 34.7538 13.8526 35.2515C14.9734 35.7847 16.2705 37.4174 14.9405 38.4929C14.5281 38.8243 13.9602 38.9146 13.4462 39.005C12.2605 39.2171 11.0477 39.2242 9.85973 39.0261C8.79874 38.8303 7.20278 38.2127 7.41796 36.6884C7.4731 36.2991 7.65565 35.9395 7.93666 35.6666C8.21767 35.3937 8.58103 35.2232 8.9691 35.1822C9.53994 35.1009 8.90036 33.92 8.37136 33.9953C6.12983 34.3207 5.9804 36.9806 7.15795 38.514C8.73897 40.5263 11.7068 40.5925 14.014 40.21C16.2735 39.8394 17.2448 38.0229 15.9298 36.0137C14.6148 34.0044 11.9996 33.2302 9.75812 33.905C9.17831 34.0767 9.85077 35.2395 10.3409 35.0919L10.3678 35.0617Z" fill="#F27FA3"/>
<path d="M0.490128 18.8427L30.2128 18.9752L29.7017 18.5083L25.2934 36.7847C24.6956 39.282 24.3968 42.4481 22.8456 44.5808C21.151 46.9064 18.0637 47.292 15.3918 47.2619C12.7912 47.2454 10.1988 46.9649 7.65405 46.4245C6.43765 46.1624 5.14952 45.8039 4.13037 45.0598C2.7466 44.0507 2.46267 42.5746 2.59716 40.9479C3.11421 34.673 4.23497 28.3921 5.05986 22.1473L7.89016 0.665693L6.89193 0.843426L12.8305 9.38064C13.0517 9.69996 13.6255 9.59151 13.8078 9.30232L19.3249 0.48796H18.2968L24.6389 11.1459C24.8032 11.4201 25.4099 11.5677 25.6162 11.2393L32.3766 0.56327L31.3814 0.370475L32.2361 12.3328C32.269 12.8269 33.339 12.8269 33.3031 12.3328L32.4513 0.379512C32.4244 -0.0271653 31.6593 -0.1326 31.4591 0.186717L24.6956 10.8688L25.6729 10.9652L19.3279 0.301189C19.2697 0.217898 19.1925 0.14993 19.1028 0.103014C19.0131 0.056098 18.9135 0.031608 18.8124 0.031608C18.7113 0.031608 18.6117 0.056098 18.522 0.103014C18.4323 0.14993 18.355 0.217898 18.2968 0.301189L12.7797 9.10049L13.748 9.03723L7.81843 0.481935C7.59727 0.180692 6.874 0.246966 6.8202 0.656656L3.95105 22.4365L2.53739 33.1788L1.86792 38.2578C1.67365 39.7278 1.30604 41.3063 1.56905 42.7945C1.96655 45.0779 4.02278 46.1895 6.05211 46.798C8.58653 47.5571 11.3511 47.8072 13.9841 47.9518C16.402 48.0873 19.0171 48.0301 21.2527 46.9818C23.4284 45.9605 24.5402 44.0597 25.1649 41.7913C27.1972 34.1548 28.8768 26.3948 30.7298 18.7131C30.8046 18.4119 30.4848 18.2462 30.2188 18.2462L0.499094 18.1107C-0.158421 18.1107 -0.170376 18.8397 0.499094 18.8427H0.490128Z" fill="#FBD8E2"/>
<path d="M8.1382 26.1267L12.3822 22.9366C12.9799 22.4968 12.3015 22.4968 11.9428 22.7649L7.69587 25.952C7.11307 26.3918 7.77955 26.3918 8.1382 26.1267Z" fill="#FBD8E2"/>
<path d="M8.01568 23.3313L11.0044 27.2475C11.1957 27.4945 12.1102 26.9974 11.9996 26.8528L9.01092 22.9367C8.82263 22.6897 7.9051 23.1837 8.01568 23.3313Z" fill="#FBD8E2"/>
<path d="M16.5096 27.4553L20.4458 24.964C20.8164 24.7291 20.0273 24.0181 19.7135 24.22L15.7774 26.7112C15.4098 26.9432 16.1958 27.6541 16.5096 27.4553Z" fill="#F27FA3"/>
<path d="M16.2795 23.7711L18.3477 28.4825C18.5808 29.0157 19.3399 28.9434 19.056 28.2927L16.9878 23.5813C16.7547 23.0511 15.9956 23.1234 16.2795 23.7711Z" fill="#F27FA3"/>
<path d="M9.72231 37.562C9.85691 37.5518 9.98271 37.4908 10.0745 37.3911C10.1663 37.2913 10.2173 37.1603 10.2173 37.0243C10.2173 36.8882 10.1663 36.7572 10.0745 36.6575C9.98271 36.5578 9.85691 36.4967 9.72231 36.4866C9.58772 36.4967 9.46192 36.5578 9.37011 36.6575C9.27831 36.7572 9.22729 36.8882 9.22729 37.0243C9.22729 37.1603 9.27831 37.2913 9.37011 37.3911C9.46192 37.4908 9.58772 37.5518 9.72231 37.562Z" fill="#F27FA3"/>
<path d="M12.4121 37.4596C12.5539 37.4596 12.69 37.4027 12.7903 37.3016C12.8907 37.2005 12.947 37.0633 12.947 36.9203C12.947 36.7773 12.8907 36.6402 12.7903 36.539C12.69 36.4379 12.5539 36.3811 12.4121 36.3811C12.2702 36.3811 12.1341 36.4379 12.0338 36.539C11.9334 36.6402 11.8771 36.7773 11.8771 36.9203C11.8771 37.0633 11.9334 37.2005 12.0338 37.3016C12.1341 37.4027 12.2702 37.4596 12.4121 37.4596Z" fill="#F27FA3"/>
</g>
<path d="M49.7862 31V30.28H52.0662V13.624H49.7862V12.904H58.2102V13.624H55.8582V30.28H58.2102V31H49.7862ZM59.8662 31V30.256H69.1302V31H59.8662ZM62.7222 30.64L56.4582 21.76L59.4582 19L67.4742 30.64H62.7222ZM55.2822 23.464V22.264L64.0182 13.336H65.1222L55.2822 23.464ZM60.8742 13.624V12.904H67.6662V13.624H60.8742ZM71.5193 30.64V12.904H75.3113V30.64H71.5193ZM69.2393 31V30.28H77.6633V31H69.2393ZM69.2393 13.624V12.904H77.6633V13.624H69.2393ZM93.1851 31.312L82.2891 15.616H82.1931V30.28H84.8331V31H78.4971V30.28H81.1371V13.624H78.4971V12.904H85.5051L93.0891 23.584H93.1851V13.624H90.7851V12.904H96.6411V13.624H94.2411V31.312H93.1851ZM105.967 31.312C104.799 31.312 103.711 31.08 102.703 30.616C101.695 30.152 100.807 29.504 100.039 28.672C99.287 27.824 98.695 26.848 98.263 25.744C97.847 24.64 97.639 23.456 97.639 22.192C97.639 20.864 97.871 19.624 98.335 18.472C98.799 17.32 99.439 16.312 100.255 15.448C101.071 14.584 102.031 13.912 103.135 13.432C104.239 12.936 105.423 12.688 106.687 12.688C107.471 12.688 108.159 12.8 108.751 13.024C109.343 13.232 109.983 13.592 110.671 14.104L111.607 12.904H112.327V18.568H111.607C111.479 17.736 111.223 16.936 110.839 16.168C110.455 15.4 109.911 14.768 109.207 14.272C108.519 13.776 107.623 13.528 106.519 13.528C105.895 13.528 105.319 13.64 104.791 13.864C104.279 14.088 103.823 14.512 103.423 15.136C103.039 15.76 102.735 16.656 102.511 17.824C102.303 18.992 102.199 20.52 102.199 22.408C102.199 24.008 102.279 25.328 102.439 26.368C102.615 27.408 102.855 28.224 103.159 28.816C103.479 29.408 103.871 29.824 104.335 30.064C104.799 30.304 105.327 30.424 105.919 30.424C106.911 30.424 107.655 30.168 108.151 29.656C108.647 29.144 108.895 28.432 108.895 27.52V24.232H113.263V26.92C113.007 27.736 112.503 28.48 111.751 29.152C111.015 29.808 110.135 30.336 109.111 30.736C108.103 31.12 107.055 31.312 105.967 31.312ZM106.591 24.52V23.8H115.111V24.52H106.591ZM121.808 22.792V22.072H123.8C124.68 22.072 125.392 21.96 125.936 21.736C126.48 21.496 126.88 21.064 127.136 20.44C127.392 19.8 127.52 18.88 127.52 17.68C127.52 16.544 127.416 15.688 127.208 15.112C127 14.536 126.688 14.144 126.272 13.936C125.872 13.728 125.368 13.624 124.76 13.624H115.88V12.904H125.96C127.112 12.904 128.144 13.112 129.056 13.528C129.984 13.944 130.72 14.52 131.264 15.256C131.808 15.976 132.08 16.808 132.08 17.752C132.08 18.744 131.744 19.624 131.072 20.392C130.416 21.144 129.472 21.736 128.24 22.168C127.008 22.584 125.528 22.792 123.8 22.792H121.808ZM115.88 31V30.28H124.784V31H115.88ZM118.16 30.64V12.904H121.952V30.64H118.16ZM134.965 30.64V12.904H138.757V30.64H134.965ZM132.685 31V30.28H141.109V31H132.685ZM132.685 13.624V12.904H141.109V13.624H132.685ZM150.99 31.312C149.822 31.312 148.734 31.08 147.726 30.616C146.718 30.152 145.83 29.504 145.062 28.672C144.31 27.824 143.718 26.848 143.286 25.744C142.87 24.64 142.662 23.456 142.662 22.192C142.662 20.864 142.894 19.624 143.358 18.472C143.822 17.32 144.462 16.312 145.278 15.448C146.094 14.584 147.054 13.912 148.158 13.432C149.262 12.936 150.446 12.688 151.71 12.688C152.494 12.688 153.182 12.8 153.774 13.024C154.366 13.232 155.006 13.592 155.694 14.104L156.63 12.904H157.35V18.568H156.63C156.502 17.736 156.246 16.936 155.862 16.168C155.478 15.4 154.934 14.768 154.23 14.272C153.542 13.776 152.646 13.528 151.542 13.528C150.918 13.528 150.342 13.64 149.814 13.864C149.302 14.088 148.846 14.512 148.446 15.136C148.062 15.76 147.758 16.656 147.534 17.824C147.326 18.992 147.222 20.52 147.222 22.408C147.222 24.008 147.302 25.328 147.462 26.368C147.638 27.408 147.878 28.224 148.182 28.816C148.502 29.408 148.894 29.824 149.358 30.064C149.822 30.304 150.35 30.424 150.942 30.424C151.934 30.424 152.678 30.168 153.174 29.656C153.67 29.144 153.918 28.432 153.918 27.52V24.232H158.286V26.92C158.03 27.736 157.526 28.48 156.774 29.152C156.038 29.808 155.158 30.336 154.134 30.736C153.126 31.12 152.078 31.312 150.99 31.312ZM151.614 24.52V23.8H160.134V24.52H151.614ZM169.951 31.312C168.783 31.312 167.695 31.08 166.687 30.616C165.679 30.152 164.791 29.504 164.023 28.672C163.271 27.824 162.679 26.848 162.247 25.744C161.831 24.64 161.623 23.456 161.623 22.192C161.623 20.864 161.855 19.624 162.319 18.472C162.783 17.32 163.423 16.312 164.239 15.448C165.055 14.584 166.015 13.912 167.119 13.432C168.223 12.936 169.407 12.688 170.671 12.688C171.455 12.688 172.143 12.8 172.735 13.024C173.327 13.232 173.967 13.592 174.655 14.104L175.591 12.904H176.311V18.568H175.591C175.463 17.736 175.207 16.936 174.823 16.168C174.439 15.4 173.895 14.768 173.191 14.272C172.503 13.776 171.607 13.528 170.503 13.528C169.879 13.528 169.303 13.64 168.775 13.864C168.263 14.088 167.807 14.512 167.407 15.136C167.023 15.76 166.719 16.656 166.495 17.824C166.287 18.992 166.183 20.52 166.183 22.408C166.183 24.008 166.263 25.328 166.423 26.368C166.599 27.408 166.839 28.224 167.143 28.816C167.463 29.408 167.855 29.824 168.319 30.064C168.783 30.304 169.311 30.424 169.903 30.424C170.895 30.424 171.639 30.168 172.135 29.656C172.631 29.144 172.879 28.432 172.879 27.52V24.232H177.247V26.92C176.991 27.736 176.487 28.48 175.735 29.152C174.999 29.808 174.119 30.336 173.095 30.736C172.087 31.12 171.039 31.312 169.951 31.312ZM170.575 24.52V23.8H179.095V24.52H170.575ZM182.592 31V30.28H185.352V23.104L179.616 13.624H177.984V12.904H186.432V13.624H184.368L188.88 21.328H188.976L192.84 13.624H190.248V12.904H195.888V13.624H193.752L189.144 22.792V30.28H191.976V31H182.592Z" fill="#FCFCFC"/>
<defs>
<clipPath id="clip0_138_3">
<rect width="33.3061" height="48" fill="white"/>
</clipPath>
</defs>
</svg>
