<svg width="34" height="48" viewBox="0 0 34 48" fill="none" xmlns="http://www.w3.org/2000/svg">
<g clip-path="url(#clip0_138_4)">
<path d="M10.3678 35.0617C11.5124 34.6862 12.7548 34.7538 13.8526 35.2515C14.9734 35.7847 16.2705 37.4174 14.9405 38.4929C14.5281 38.8243 13.9602 38.9146 13.4462 39.005C12.2605 39.2171 11.0477 39.2242 9.85973 39.0261C8.79874 38.8303 7.20278 38.2127 7.41796 36.6884C7.4731 36.2991 7.65565 35.9395 7.93666 35.6666C8.21767 35.3937 8.58103 35.2232 8.9691 35.1822C9.53994 35.1009 8.90036 33.92 8.37136 33.9953C6.12983 34.3207 5.9804 36.9806 7.15795 38.514C8.73897 40.5263 11.7068 40.5925 14.014 40.21C16.2735 39.8394 17.2448 38.0229 15.9298 36.0137C14.6148 34.0044 11.9996 33.2302 9.75812 33.905C9.17831 34.0767 9.85077 35.2395 10.3409 35.0919L10.3678 35.0617Z" fill="#F27FA3"/>
<path d="M0.490128 18.8427L30.2128 18.9752L29.7017 18.5083L25.2934 36.7847C24.6956 39.282 24.3968 42.4481 22.8456 44.5808C21.151 46.9064 18.0637 47.292 15.3918 47.2619C12.7912 47.2454 10.1988 46.9649 7.65405 46.4245C6.43765 46.1624 5.14952 45.8039 4.13037 45.0598C2.7466 44.0507 2.46267 42.5746 2.59716 40.9479C3.11421 34.673 4.23497 28.3921 5.05986 22.1473L7.89016 0.665693L6.89193 0.843426L12.8305 9.38064C13.0517 9.69996 13.6255 9.59151 13.8078 9.30232L19.3249 0.48796H18.2968L24.6389 11.1459C24.8032 11.4201 25.4099 11.5677 25.6162 11.2393L32.3766 0.56327L31.3814 0.370475L32.2361 12.3328C32.269 12.8269 33.339 12.8269 33.3031 12.3328L32.4513 0.379512C32.4244 -0.0271653 31.6593 -0.1326 31.4591 0.186717L24.6956 10.8688L25.6729 10.9652L19.3279 0.301189C19.2697 0.217898 19.1925 0.14993 19.1028 0.103014C19.0131 0.056098 18.9135 0.031608 18.8124 0.031608C18.7113 0.031608 18.6117 0.056098 18.522 0.103014C18.4323 0.14993 18.355 0.217898 18.2968 0.301189L12.7797 9.10049L13.748 9.03723L7.81843 0.481935C7.59727 0.180692 6.874 0.246966 6.8202 0.656656L3.95105 22.4365L2.53739 33.1788L1.86792 38.2578C1.67365 39.7278 1.30604 41.3063 1.56905 42.7945C1.96655 45.0779 4.02278 46.1895 6.05211 46.798C8.58653 47.5571 11.3511 47.8072 13.9841 47.9518C16.402 48.0873 19.0171 48.0301 21.2527 46.9818C23.4284 45.9605 24.5402 44.0597 25.1649 41.7913C27.1972 34.1548 28.8768 26.3948 30.7298 18.7131C30.8046 18.4119 30.4848 18.2462 30.2188 18.2462L0.499094 18.1107C-0.158421 18.1107 -0.170376 18.8397 0.499094 18.8427H0.490128Z" fill="#FBD8E2"/>
<path d="M8.1382 26.1267L12.3822 22.9366C12.9799 22.4968 12.3015 22.4968 11.9428 22.7649L7.69587 25.952C7.11307 26.3918 7.77955 26.3918 8.1382 26.1267Z" fill="#FBD8E2"/>
<path d="M8.01568 23.3313L11.0044 27.2475C11.1957 27.4945 12.1102 26.9974 11.9996 26.8528L9.01092 22.9367C8.82263 22.6897 7.9051 23.1837 8.01568 23.3313Z" fill="#FBD8E2"/>
<path d="M16.5096 27.4553L20.4458 24.964C20.8164 24.7291 20.0273 24.0181 19.7135 24.22L15.7774 26.7112C15.4098 26.9432 16.1958 27.6541 16.5096 27.4553Z" fill="#F27FA3"/>
<path d="M16.2795 23.7711L18.3477 28.4825C18.5808 29.0157 19.3399 28.9434 19.056 28.2927L16.9878 23.5813C16.7547 23.0511 15.9956 23.1234 16.2795 23.7711Z" fill="#F27FA3"/>
<path d="M9.72231 37.562C9.85691 37.5518 9.98271 37.4908 10.0745 37.3911C10.1663 37.2913 10.2173 37.1603 10.2173 37.0243C10.2173 36.8882 10.1663 36.7572 10.0745 36.6575C9.98271 36.5578 9.85691 36.4967 9.72231 36.4866C9.58772 36.4967 9.46192 36.5578 9.37011 36.6575C9.27831 36.7572 9.22729 36.8882 9.22729 37.0243C9.22729 37.1603 9.27831 37.2913 9.37011 37.3911C9.46192 37.4908 9.58772 37.5518 9.72231 37.562Z" fill="#F27FA3"/>
<path d="M12.4121 37.4596C12.5539 37.4596 12.69 37.4027 12.7903 37.3016C12.8907 37.2005 12.947 37.0633 12.947 36.9203C12.947 36.7773 12.8907 36.6402 12.7903 36.539C12.69 36.4379 12.5539 36.3811 12.4121 36.3811C12.2702 36.3811 12.1341 36.4379 12.0338 36.539C11.9334 36.6402 11.8771 36.7773 11.8771 36.9203C11.8771 37.0633 11.9334 37.2005 12.0338 37.3016C12.1341 37.4027 12.2702 37.4596 12.4121 37.4596Z" fill="#F27FA3"/>
</g>
<defs>
<clipPath id="clip0_138_4">
<rect width="33.3061" height="48" fill="white"/>
</clipPath>
</defs>
</svg>
